<?xml version="1.0" encoding="utf-8" standalone="no"?><!DOCTYPE svg PUBLIC "-//W3C//DTD SVG 1.1//EN" "http://www.w3.org/Graphics/SVG/1.1/DTD/svg11.dtd">
<svg preserveAspectRatio="xMinYMin meet" width="100%" height="100%" viewBox="0 0 1358.000 1060.000"  version="1.1" xmlns="http://www.w3.org/2000/svg" xmlns:xlink="http://www.w3.org/1999/xlink">
  <desc>Matlab Figure Converted by PLOT2SVG written by Juerg Schwizer</desc>
  <g id="topgroup">
  <rect x="0" y="0" width="1358.000" height="1060.000" fill="#ffffff" stroke="none" />
  <g id ="ID000000">
  <clipPath id="ID000001">
    <rect x="270.815" y="79.500" width="863.900" height="863.900"/>
  </clipPath>
    <g>
<g id="ID000002" clip-path="url(#ID000001)" >
<image x="-4508.676" y="-5321.556" width="19310.633" height="19310.633" image-rendering="optimizeSpeed" preserveAspectRatio="none" xlink:href="WingTrackingExample20130929_ExampleAliceGray001.png" />
</g>
<g id="ID000003" >
</g>
<g id="ID000004" clip-path="url(#ID000001)" >
      <polyline fill="none" stroke="#00ffa9" stroke-width="0.5pt" stroke-dasharray="none" points="11138.288,7063.013 10878.614,7182.322 10592.843,7181.395 "/>
<g>
<circle cx="11138.288" cy="7063.013" r="1.000" fill="#00ffa9" stroke="none" stroke-width="0.5pt" />
<circle cx="10878.614" cy="7182.322" r="1.000" fill="#00ffa9" stroke="none" stroke-width="0.5pt" />
<circle cx="10592.843" cy="7181.395" r="1.000" fill="#00ffa9" stroke="none" stroke-width="0.5pt" />
</g>
</g>
<g id="ID000005" clip-path="url(#ID000001)" >
<g>
      <polyline fill="#00ffa9" fill-opacity="1.00" stroke="#00ffa9" stroke-width="0.5pt" stroke-opacity="1.00" stroke-dasharray="none" points="10989.798,7271.284 10995.398,7265.684 "/>
      <polyline fill="#00ffa9" fill-opacity="1.00" stroke="#00ffa9" stroke-width="0.5pt" stroke-opacity="1.00" stroke-dasharray="none" points="10989.798,7265.684 10995.398,7271.284 "/>
</g>
</g>
<g id="ID000006" clip-path="url(#ID000001)" >
      <polyline fill="none" stroke="#aaff00" stroke-width="0.5pt" stroke-dasharray="none" points="9533.412,9435.881 9529.403,9750.506 9832.351,9835.523 "/>
<g>
<circle cx="9533.412" cy="9435.881" r="1.000" fill="#aaff00" stroke="none" stroke-width="0.5pt" />
<circle cx="9529.403" cy="9750.506" r="1.000" fill="#aaff00" stroke="none" stroke-width="0.5pt" />
<circle cx="9832.351" cy="9835.523" r="1.000" fill="#aaff00" stroke="none" stroke-width="0.5pt" />
</g>
</g>
<g id="ID000007" clip-path="url(#ID000001)" >
<g>
      <polyline fill="#aaff00" fill-opacity="1.00" stroke="#aaff00" stroke-width="0.5pt" stroke-opacity="1.00" stroke-dasharray="none" points="9678.077,9795.814 9683.677,9790.214 "/>
      <polyline fill="#aaff00" fill-opacity="1.00" stroke="#aaff00" stroke-width="0.5pt" stroke-opacity="1.00" stroke-dasharray="none" points="9678.077,9790.214 9683.677,9795.814 "/>
</g>
</g>
<g id="ID000008" clip-path="url(#ID000001)" >
      <polyline fill="none" stroke="#ff0071" stroke-width="0.5pt" stroke-dasharray="none" points="10027.383,5290.027 10040.575,5707.101 10027.383,5290.027 "/>
<g>
<circle cx="10027.383" cy="5290.027" r="1.000" fill="#ff0071" stroke="none" stroke-width="0.5pt" />
<circle cx="10040.575" cy="5707.101" r="1.000" fill="#ff0071" stroke="none" stroke-width="0.5pt" />
<circle cx="10027.383" cy="5290.027" r="1.000" fill="#ff0071" stroke="none" stroke-width="0.5pt" />
</g>
</g>
<g id="ID000009" clip-path="url(#ID000001)" >
<g>
      <polyline fill="#ff0071" fill-opacity="1.00" stroke="#ff0071" stroke-width="0.5pt" stroke-opacity="1.00" stroke-dasharray="none" points="10031.179,5501.364 10036.779,5495.764 "/>
      <polyline fill="#ff0071" fill-opacity="1.00" stroke="#ff0071" stroke-width="0.5pt" stroke-opacity="1.00" stroke-dasharray="none" points="10031.179,5495.764 10036.779,5501.364 "/>
</g>
</g>
<g id="ID000010" clip-path="url(#ID000001)" >
      <polyline fill="none" stroke="#7100ff" stroke-width="0.5pt" stroke-dasharray="none" points="-2474.570,929.728 -2882.392,1075.357 -2460.677,1173.762 "/>
<g>
<circle cx="-2474.570" cy="929.728" r="1.000" fill="#7100ff" stroke="none" stroke-width="0.5pt" />
<circle cx="-2882.392" cy="1075.357" r="1.000" fill="#7100ff" stroke="none" stroke-width="0.5pt" />
<circle cx="-2460.677" cy="1173.762" r="1.000" fill="#7100ff" stroke="none" stroke-width="0.5pt" />
</g>
</g>
<g id="ID000011" clip-path="url(#ID000001)" >
<g>
      <polyline fill="#7100ff" fill-opacity="1.00" stroke="#7100ff" stroke-width="0.5pt" stroke-opacity="1.00" stroke-dasharray="none" points="-2668.980,1066.578 -2663.380,1060.978 "/>
      <polyline fill="#7100ff" fill-opacity="1.00" stroke="#7100ff" stroke-width="0.5pt" stroke-opacity="1.00" stroke-dasharray="none" points="-2668.980,1060.978 -2663.380,1066.578 "/>
</g>
</g>
<g id="ID000012" clip-path="url(#ID000001)" >
      <polyline fill="none" stroke="#38ff00" stroke-width="0.5pt" stroke-dasharray="none" points="4991.809,-3955.026 4591.171,-3976.265 4963.329,-3826.398 "/>
<g>
<circle cx="4991.809" cy="-3955.026" r="1.000" fill="#38ff00" stroke="none" stroke-width="0.5pt" />
<circle cx="4591.171" cy="-3976.265" r="1.000" fill="#38ff00" stroke="none" stroke-width="0.5pt" />
<circle cx="4963.329" cy="-3826.398" r="1.000" fill="#38ff00" stroke="none" stroke-width="0.5pt" />
</g>
</g>
<g id="ID000013" clip-path="url(#ID000001)" >
<g>
      <polyline fill="#38ff00" fill-opacity="1.00" stroke="#38ff00" stroke-width="0.5pt" stroke-opacity="1.00" stroke-dasharray="none" points="4783.152,-3925.498 4788.752,-3931.098 "/>
      <polyline fill="#38ff00" fill-opacity="1.00" stroke="#38ff00" stroke-width="0.5pt" stroke-opacity="1.00" stroke-dasharray="none" points="4783.152,-3931.098 4788.752,-3925.498 "/>
</g>
</g>
<g id="ID000014" clip-path="url(#ID000001)" >
      <polyline fill="none" stroke="#ff0038" stroke-width="0.5pt" stroke-dasharray="none" points="-1030.972,10178.856 -972.830,10542.588 -920.304,10178.003 "/>
<g>
<circle cx="-1030.972" cy="10178.856" r="1.000" fill="#ff0038" stroke="none" stroke-width="0.5pt" />
<circle cx="-972.830" cy="10542.588" r="1.000" fill="#ff0038" stroke="none" stroke-width="0.5pt" />
<circle cx="-920.304" cy="10178.003" r="1.000" fill="#ff0038" stroke="none" stroke-width="0.5pt" />
</g>
</g>
<g id="ID000015" clip-path="url(#ID000001)" >
<g>
      <polyline fill="#ff0038" fill-opacity="1.00" stroke="#ff0038" stroke-width="0.5pt" stroke-opacity="1.00" stroke-dasharray="none" points="-975.314,10361.214 -969.714,10355.614 "/>
      <polyline fill="#ff0038" fill-opacity="1.00" stroke="#ff0038" stroke-width="0.5pt" stroke-opacity="1.00" stroke-dasharray="none" points="-975.314,10355.614 -969.714,10361.214 "/>
</g>
</g>
<g id="ID000016" clip-path="url(#ID000001)" >
      <polyline fill="none" stroke="#ff0000" stroke-width="0.5pt" stroke-dasharray="none" points="10622.116,3377.780 10287.827,3505.622 10643.720,3543.478 "/>
<g>
<circle cx="10622.116" cy="3377.780" r="1.000" fill="#ff0000" stroke="none" stroke-width="0.5pt" />
<circle cx="10287.827" cy="3505.622" r="1.000" fill="#ff0000" stroke="none" stroke-width="0.5pt" />
<circle cx="10643.720" cy="3543.478" r="1.000" fill="#ff0000" stroke="none" stroke-width="0.5pt" />
</g>
</g>
<g id="ID000017" clip-path="url(#ID000001)" >
<g>
      <polyline fill="#ff0000" fill-opacity="1.00" stroke="#ff0000" stroke-width="0.5pt" stroke-opacity="1.00" stroke-dasharray="none" points="10462.476,3485.286 10468.076,3479.686 "/>
      <polyline fill="#ff0000" fill-opacity="1.00" stroke="#ff0000" stroke-width="0.5pt" stroke-opacity="1.00" stroke-dasharray="none" points="10462.476,3479.686 10468.076,3485.286 "/>
</g>
</g>
<g id="ID000018" clip-path="url(#ID000001)" >
      <polyline fill="none" stroke="#00ff00" stroke-width="0.5pt" stroke-dasharray="none" points="10787.087,-1832.417 10547.719,-2093.572 10212.146,-2207.106 "/>
<g>
<circle cx="10787.087" cy="-1832.417" r="1.000" fill="#00ff00" stroke="none" stroke-width="0.5pt" />
<circle cx="10547.719" cy="-2093.572" r="1.000" fill="#00ff00" stroke="none" stroke-width="0.5pt" />
<circle cx="10212.146" cy="-2207.106" r="1.000" fill="#00ff00" stroke="none" stroke-width="0.5pt" />
</g>
</g>
<g id="ID000019" clip-path="url(#ID000001)" >
<g>
      <polyline fill="#00ff00" fill-opacity="1.00" stroke="#00ff00" stroke-width="0.5pt" stroke-opacity="1.00" stroke-dasharray="none" points="10448.208,-1942.374 10453.808,-1947.974 "/>
      <polyline fill="#00ff00" fill-opacity="1.00" stroke="#00ff00" stroke-width="0.5pt" stroke-opacity="1.00" stroke-dasharray="none" points="10448.208,-1947.974 10453.808,-1942.374 "/>
</g>
</g>
<g id="ID000020" clip-path="url(#ID000001)" >
      <polyline fill="none" stroke="#71ff00" stroke-width="0.5pt" stroke-dasharray="none" points="9042.380,7109.559 9088.306,7501.187 9042.380,7109.559 "/>
<g>
<circle cx="9042.380" cy="7109.559" r="1.000" fill="#71ff00" stroke="none" stroke-width="0.5pt" />
<circle cx="9088.306" cy="7501.187" r="1.000" fill="#71ff00" stroke="none" stroke-width="0.5pt" />
<circle cx="9042.380" cy="7109.559" r="1.000" fill="#71ff00" stroke="none" stroke-width="0.5pt" />
</g>
</g>
<g id="ID000021" clip-path="url(#ID000001)" >
<g>
      <polyline fill="#71ff00" fill-opacity="1.00" stroke="#71ff00" stroke-width="0.5pt" stroke-opacity="1.00" stroke-dasharray="none" points="9062.543,7308.173 9068.143,7302.573 "/>
      <polyline fill="#71ff00" fill-opacity="1.00" stroke="#71ff00" stroke-width="0.5pt" stroke-opacity="1.00" stroke-dasharray="none" points="9062.543,7302.573 9068.143,7308.173 "/>
</g>
</g>
<g id="ID000022" clip-path="url(#ID000001)" >
      <polyline fill="none" stroke="#00ff38" stroke-width="0.5pt" stroke-dasharray="none" points="-1254.699,-1325.515 -1307.787,-1699.289 -1254.699,-1325.515 "/>
<g>
<circle cx="-1254.699" cy="-1325.515" r="1.000" fill="#00ff38" stroke="none" stroke-width="0.5pt" />
<circle cx="-1307.787" cy="-1699.289" r="1.000" fill="#00ff38" stroke="none" stroke-width="0.5pt" />
<circle cx="-1254.699" cy="-1325.515" r="1.000" fill="#00ff38" stroke="none" stroke-width="0.5pt" />
</g>
</g>
<g id="ID000023" clip-path="url(#ID000001)" >
<g>
      <polyline fill="#00ff38" fill-opacity="1.00" stroke="#00ff38" stroke-width="0.5pt" stroke-opacity="1.00" stroke-dasharray="none" points="-1284.043,-1509.602 -1278.443,-1515.202 "/>
      <polyline fill="#00ff38" fill-opacity="1.00" stroke="#00ff38" stroke-width="0.5pt" stroke-opacity="1.00" stroke-dasharray="none" points="-1284.043,-1515.202 -1278.443,-1509.602 "/>
</g>
</g>
<g id="ID000024" clip-path="url(#ID000001)" >
      <polyline fill="none" stroke="#ff00e2" stroke-width="0.5pt" stroke-dasharray="none" points="11634.877,-144.365 11735.557,-533.493 11434.957,-266.666 "/>
<g>
<circle cx="11634.877" cy="-144.365" r="1.000" fill="#ff00e2" stroke="none" stroke-width="0.5pt" />
<circle cx="11735.557" cy="-533.493" r="1.000" fill="#ff00e2" stroke="none" stroke-width="0.5pt" />
<circle cx="11434.957" cy="-266.666" r="1.000" fill="#ff00e2" stroke="none" stroke-width="0.5pt" />
</g>
</g>
<g id="ID000025" clip-path="url(#ID000001)" >
<g>
      <polyline fill="#ff00e2" fill-opacity="1.00" stroke="#ff00e2" stroke-width="0.5pt" stroke-opacity="1.00" stroke-dasharray="none" points="11631.040,-357.364 11636.640,-362.964 "/>
      <polyline fill="#ff00e2" fill-opacity="1.00" stroke="#ff00e2" stroke-width="0.5pt" stroke-opacity="1.00" stroke-dasharray="none" points="11631.040,-362.964 11636.640,-357.364 "/>
</g>
</g>
<g id="ID000026" clip-path="url(#ID000001)" >
      <polyline fill="none" stroke="#0038ff" stroke-width="0.5pt" stroke-dasharray="none" points="-2275.730,2350.600 -2401.529,2721.488 -2034.699,2584.307 "/>
<g>
<circle cx="-2275.730" cy="2350.600" r="1.000" fill="#0038ff" stroke="none" stroke-width="0.5pt" />
<circle cx="-2401.529" cy="2721.488" r="1.000" fill="#0038ff" stroke="none" stroke-width="0.5pt" />
<circle cx="-2034.699" cy="2584.307" r="1.000" fill="#0038ff" stroke="none" stroke-width="0.5pt" />
</g>
</g>
<g id="ID000027" clip-path="url(#ID000001)" >
<g>
      <polyline fill="#0038ff" fill-opacity="1.00" stroke="#0038ff" stroke-width="0.5pt" stroke-opacity="1.00" stroke-dasharray="none" points="-2220.914,2655.697 -2215.314,2650.097 "/>
      <polyline fill="#0038ff" fill-opacity="1.00" stroke="#0038ff" stroke-width="0.5pt" stroke-opacity="1.00" stroke-dasharray="none" points="-2220.914,2650.097 -2215.314,2655.697 "/>
</g>
</g>
<g id="ID000028" clip-path="url(#ID000001)" >
      <polyline fill="none" stroke="#ffaa00" stroke-width="0.5pt" stroke-dasharray="none" points="8361.631,-3867.398 8053.206,-4055.844 8210.091,-3730.228 "/>
<g>
<circle cx="8361.631" cy="-3867.398" r="1.000" fill="#ffaa00" stroke="none" stroke-width="0.5pt" />
<circle cx="8053.206" cy="-4055.844" r="1.000" fill="#ffaa00" stroke="none" stroke-width="0.5pt" />
<circle cx="8210.091" cy="-3730.228" r="1.000" fill="#ffaa00" stroke="none" stroke-width="0.5pt" />
</g>
</g>
<g id="ID000029" clip-path="url(#ID000001)" >
<g>
      <polyline fill="#ffaa00" fill-opacity="1.00" stroke="#ffaa00" stroke-width="0.5pt" stroke-opacity="1.00" stroke-dasharray="none" points="8174.290,-3921.468 8179.890,-3927.068 "/>
      <polyline fill="#ffaa00" fill-opacity="1.00" stroke="#ffaa00" stroke-width="0.5pt" stroke-opacity="1.00" stroke-dasharray="none" points="8174.290,-3927.068 8179.890,-3921.468 "/>
</g>
</g>
<g id="ID000030" clip-path="url(#ID000001)" >
      <polyline fill="none" stroke="#3800ff" stroke-width="0.5pt" stroke-dasharray="none" points="130.662,10803.440 -290.918,10893.541 116.729,11033.795 "/>
<g>
<circle cx="130.662" cy="10803.440" r="1.000" fill="#3800ff" stroke="none" stroke-width="0.5pt" />
<circle cx="-290.918" cy="10893.541" r="1.000" fill="#3800ff" stroke="none" stroke-width="0.5pt" />
<circle cx="116.729" cy="11033.795" r="1.000" fill="#3800ff" stroke="none" stroke-width="0.5pt" />
</g>
</g>
<g id="ID000031" clip-path="url(#ID000001)" >
<g>
      <polyline fill="#3800ff" fill-opacity="1.00" stroke="#3800ff" stroke-width="0.5pt" stroke-opacity="1.00" stroke-dasharray="none" points="-79.155,10916.949 -73.555,10911.349 "/>
      <polyline fill="#3800ff" fill-opacity="1.00" stroke="#3800ff" stroke-width="0.5pt" stroke-opacity="1.00" stroke-dasharray="none" points="-79.155,10911.349 -73.555,10916.949 "/>
</g>
</g>
<g id="ID000032" clip-path="url(#ID000001)" >
      <polyline fill="none" stroke="#e200ff" stroke-width="0.5pt" stroke-dasharray="none" points="1021.017,241.201 651.523,421.289 968.296,683.228 "/>
<g>
<circle cx="1021.017" cy="241.201" r="1.000" fill="#e200ff" stroke="none" stroke-width="0.5pt" />
<circle cx="651.523" cy="421.289" r="1.000" fill="#e200ff" stroke="none" stroke-width="0.5pt" />
<circle cx="968.296" cy="683.228" r="1.000" fill="#e200ff" stroke="none" stroke-width="0.5pt" />
</g>
</g>
<g id="ID000033" clip-path="url(#ID000001)" >
<g>
      <polyline fill="#e200ff" fill-opacity="1.00" stroke="#e200ff" stroke-width="0.5pt" stroke-opacity="1.00" stroke-dasharray="none" points="853.813,437.408 859.413,431.808 "/>
      <polyline fill="#e200ff" fill-opacity="1.00" stroke="#e200ff" stroke-width="0.5pt" stroke-opacity="1.00" stroke-dasharray="none" points="853.813,431.808 859.413,437.408 "/>
</g>
</g>
<g id="ID000034" clip-path="url(#ID000001)" >
      <polyline fill="none" stroke="#e2ff00" stroke-width="0.5pt" stroke-dasharray="none" points="-2909.744,4924.324 -3242.579,5093.208 -2909.744,4924.324 "/>
<g>
<circle cx="-2909.744" cy="4924.324" r="1.000" fill="#e2ff00" stroke="none" stroke-width="0.5pt" />
<circle cx="-3242.579" cy="5093.208" r="1.000" fill="#e2ff00" stroke="none" stroke-width="0.5pt" />
<circle cx="-2909.744" cy="4924.324" r="1.000" fill="#e2ff00" stroke="none" stroke-width="0.5pt" />
</g>
</g>
<g id="ID000035" clip-path="url(#ID000001)" >
<g>
      <polyline fill="#e2ff00" fill-opacity="1.00" stroke="#e2ff00" stroke-width="0.5pt" stroke-opacity="1.00" stroke-dasharray="none" points="-3078.961,5011.566 -3073.361,5005.966 "/>
      <polyline fill="#e2ff00" fill-opacity="1.00" stroke="#e2ff00" stroke-width="0.5pt" stroke-opacity="1.00" stroke-dasharray="none" points="-3078.961,5005.966 -3073.361,5011.566 "/>
</g>
</g>
<g id="ID000036" clip-path="url(#ID000001)" >
      <polyline fill="none" stroke="#ff00aa" stroke-width="0.5pt" stroke-dasharray="none" points="12762.217,354.327 12404.002,308.012 12655.964,566.813 "/>
<g>
<circle cx="12762.217" cy="354.327" r="1.000" fill="#ff00aa" stroke="none" stroke-width="0.5pt" />
<circle cx="12404.002" cy="308.012" r="1.000" fill="#ff00aa" stroke="none" stroke-width="0.5pt" />
<circle cx="12655.964" cy="566.813" r="1.000" fill="#ff00aa" stroke="none" stroke-width="0.5pt" />
</g>
</g>
<g id="ID000037" clip-path="url(#ID000001)" >
<g>
      <polyline fill="#ff00aa" fill-opacity="1.00" stroke="#ff00aa" stroke-width="0.5pt" stroke-opacity="1.00" stroke-dasharray="none" points="12560.561,395.784 12566.161,390.184 "/>
      <polyline fill="#ff00aa" fill-opacity="1.00" stroke="#ff00aa" stroke-width="0.5pt" stroke-opacity="1.00" stroke-dasharray="none" points="12560.561,390.184 12566.161,395.784 "/>
</g>
</g>
<g id="ID000038" clip-path="url(#ID000001)" >
      <polyline fill="none" stroke="#00ff71" stroke-width="0.5pt" stroke-dasharray="none" points="-3296.987,4047.287 -3568.448,4314.804 -3296.987,4047.287 "/>
<g>
<circle cx="-3296.987" cy="4047.287" r="1.000" fill="#00ff71" stroke="none" stroke-width="0.5pt" />
<circle cx="-3568.448" cy="4314.804" r="1.000" fill="#00ff71" stroke="none" stroke-width="0.5pt" />
<circle cx="-3296.987" cy="4047.287" r="1.000" fill="#00ff71" stroke="none" stroke-width="0.5pt" />
</g>
</g>
<g id="ID000039" clip-path="url(#ID000001)" >
<g>
      <polyline fill="#00ff71" fill-opacity="1.00" stroke="#00ff71" stroke-width="0.5pt" stroke-opacity="1.00" stroke-dasharray="none" points="-3435.518,4183.846 -3429.918,4178.246 "/>
      <polyline fill="#00ff71" fill-opacity="1.00" stroke="#00ff71" stroke-width="0.5pt" stroke-opacity="1.00" stroke-dasharray="none" points="-3435.518,4178.246 -3429.918,4183.846 "/>
</g>
</g>
<g id="ID000040" clip-path="url(#ID000001)" >
      <polyline fill="none" stroke="#0071ff" stroke-width="0.5pt" stroke-dasharray="none" points="-684.151,6295.740 -619.181,6667.111 -594.962,7043.343 "/>
<g>
<circle cx="-684.151" cy="6295.740" r="1.000" fill="#0071ff" stroke="none" stroke-width="0.5pt" />
<circle cx="-619.181" cy="6667.111" r="1.000" fill="#0071ff" stroke="none" stroke-width="0.5pt" />
<circle cx="-594.962" cy="7043.343" r="1.000" fill="#0071ff" stroke="none" stroke-width="0.5pt" />
</g>
</g>
<g id="ID000041" clip-path="url(#ID000001)" >
<g>
      <polyline fill="#0071ff" fill-opacity="1.00" stroke="#0071ff" stroke-width="0.5pt" stroke-opacity="1.00" stroke-dasharray="none" points="-437.210,6632.576 -431.610,6626.976 "/>
      <polyline fill="#0071ff" fill-opacity="1.00" stroke="#0071ff" stroke-width="0.5pt" stroke-opacity="1.00" stroke-dasharray="none" points="-437.210,6626.976 -431.610,6632.576 "/>
</g>
</g>
<g id="ID000042" clip-path="url(#ID000001)" >
      <polyline fill="none" stroke="#00a9ff" stroke-width="0.5pt" stroke-dasharray="none" points="6656.562,-812.221 7006.067,-867.483 6655.763,-917.433 "/>
<g>
<circle cx="6656.562" cy="-812.221" r="1.000" fill="#00a9ff" stroke="none" stroke-width="0.5pt" />
<circle cx="7006.067" cy="-867.483" r="1.000" fill="#00a9ff" stroke="none" stroke-width="0.5pt" />
<circle cx="6655.763" cy="-917.433" r="1.000" fill="#00a9ff" stroke="none" stroke-width="0.5pt" />
</g>
</g>
<g id="ID000043" clip-path="url(#ID000001)" >
<g>
      <polyline fill="#00a9ff" fill-opacity="1.00" stroke="#00a9ff" stroke-width="0.5pt" stroke-opacity="1.00" stroke-dasharray="none" points="6826.365,-861.951 6831.965,-867.551 "/>
      <polyline fill="#00a9ff" fill-opacity="1.00" stroke="#00a9ff" stroke-width="0.5pt" stroke-opacity="1.00" stroke-dasharray="none" points="6826.365,-867.551 6831.965,-861.951 "/>
</g>
</g>
<g id="ID000044" clip-path="url(#ID000001)" >
  <g transform="translate(10878.614,7186.822)">
    <g transform="rotate(-0.0)">
      <text x="0.000" y="0.000" font-family="Helvetica" text-anchor="middle" font-size="10pt" fill="#ffffff" >1</text>
    </g>
  </g>
</g>
<g id="ID000045" clip-path="url(#ID000001)" >
  <g transform="translate(9529.403,9755.006)">
    <g transform="rotate(-0.0)">
      <text x="0.000" y="0.000" font-family="Helvetica" text-anchor="middle" font-size="10pt" fill="#ffffff" >2</text>
    </g>
  </g>
</g>
<g id="ID000046" clip-path="url(#ID000001)" >
  <g transform="translate(10040.575,5711.601)">
    <g transform="rotate(-0.0)">
      <text x="0.000" y="0.000" font-family="Helvetica" text-anchor="middle" font-size="10pt" fill="#ffffff" >3</text>
    </g>
  </g>
</g>
<g id="ID000047" clip-path="url(#ID000001)" >
  <g transform="translate(-2882.392,1079.857)">
    <g transform="rotate(-0.0)">
      <text x="0.000" y="0.000" font-family="Helvetica" text-anchor="middle" font-size="10pt" fill="#ffffff" >4</text>
    </g>
  </g>
</g>
<g id="ID000048" clip-path="url(#ID000001)" >
  <g transform="translate(4591.171,-3971.765)">
    <g transform="rotate(-0.0)">
      <text x="0.000" y="0.000" font-family="Helvetica" text-anchor="middle" font-size="10pt" fill="#ffffff" >5</text>
    </g>
  </g>
</g>
<g id="ID000049" clip-path="url(#ID000001)" >
  <g transform="translate(-972.830,10547.088)">
    <g transform="rotate(-0.0)">
      <text x="0.000" y="0.000" font-family="Helvetica" text-anchor="middle" font-size="10pt" fill="#ffffff" >6</text>
    </g>
  </g>
</g>
<g id="ID000050" clip-path="url(#ID000001)" >
  <g transform="translate(10287.827,3510.122)">
    <g transform="rotate(-0.0)">
      <text x="0.000" y="0.000" font-family="Helvetica" text-anchor="middle" font-size="10pt" fill="#ffffff" >7</text>
    </g>
  </g>
</g>
<g id="ID000051" clip-path="url(#ID000001)" >
  <g transform="translate(10547.719,-2089.072)">
    <g transform="rotate(-0.0)">
      <text x="0.000" y="0.000" font-family="Helvetica" text-anchor="middle" font-size="10pt" fill="#ffffff" >8</text>
    </g>
  </g>
</g>
<g id="ID000052" clip-path="url(#ID000001)" >
  <g transform="translate(9088.306,7505.687)">
    <g transform="rotate(-0.0)">
      <text x="0.000" y="0.000" font-family="Helvetica" text-anchor="middle" font-size="10pt" fill="#ffffff" >9</text>
    </g>
  </g>
</g>
<g id="ID000053" clip-path="url(#ID000001)" >
  <g transform="translate(-1307.787,-1694.789)">
    <g transform="rotate(-0.0)">
      <text x="0.000" y="0.000" font-family="Helvetica" text-anchor="middle" font-size="10pt" fill="#ffffff" >10</text>
    </g>
  </g>
</g>
<g id="ID000054" clip-path="url(#ID000001)" >
  <g transform="translate(11735.557,-528.993)">
    <g transform="rotate(-0.0)">
      <text x="0.000" y="0.000" font-family="Helvetica" text-anchor="middle" font-size="10pt" fill="#ffffff" >11</text>
    </g>
  </g>
</g>
<g id="ID000055" clip-path="url(#ID000001)" >
  <g transform="translate(-2401.529,2725.988)">
    <g transform="rotate(-0.0)">
      <text x="0.000" y="0.000" font-family="Helvetica" text-anchor="middle" font-size="10pt" fill="#ffffff" >12</text>
    </g>
  </g>
</g>
<g id="ID000056" clip-path="url(#ID000001)" >
  <g transform="translate(8053.206,-4051.344)">
    <g transform="rotate(-0.0)">
      <text x="0.000" y="0.000" font-family="Helvetica" text-anchor="middle" font-size="10pt" fill="#ffffff" >13</text>
    </g>
  </g>
</g>
<g id="ID000057" clip-path="url(#ID000001)" >
  <g transform="translate(-290.918,10898.041)">
    <g transform="rotate(-0.0)">
      <text x="0.000" y="0.000" font-family="Helvetica" text-anchor="middle" font-size="10pt" fill="#ffffff" >14</text>
    </g>
  </g>
</g>
<g id="ID000058" clip-path="url(#ID000001)" >
  <g transform="translate(651.523,425.789)">
    <g transform="rotate(-0.0)">
      <text x="0.000" y="0.000" font-family="Helvetica" text-anchor="middle" font-size="10pt" fill="#ffffff" >15</text>
    </g>
  </g>
</g>
<g id="ID000059" clip-path="url(#ID000001)" >
  <g transform="translate(-3242.579,5097.708)">
    <g transform="rotate(-0.0)">
      <text x="0.000" y="0.000" font-family="Helvetica" text-anchor="middle" font-size="10pt" fill="#ffffff" >16</text>
    </g>
  </g>
</g>
<g id="ID000060" clip-path="url(#ID000001)" >
  <g transform="translate(12404.002,312.512)">
    <g transform="rotate(-0.0)">
      <text x="0.000" y="0.000" font-family="Helvetica" text-anchor="middle" font-size="10pt" fill="#ffffff" >17</text>
    </g>
  </g>
</g>
<g id="ID000061" clip-path="url(#ID000001)" >
  <g transform="translate(-3568.448,4319.304)">
    <g transform="rotate(-0.0)">
      <text x="0.000" y="0.000" font-family="Helvetica" text-anchor="middle" font-size="10pt" fill="#ffffff" >18</text>
    </g>
  </g>
</g>
<g id="ID000062" clip-path="url(#ID000001)" >
  <g transform="translate(-619.181,6671.611)">
    <g transform="rotate(-0.0)">
      <text x="0.000" y="0.000" font-family="Helvetica" text-anchor="middle" font-size="10pt" fill="#ffffff" >19</text>
    </g>
  </g>
</g>
<g id="ID000063" clip-path="url(#ID000001)" >
  <g transform="translate(7006.067,-862.983)">
    <g transform="rotate(-0.0)">
      <text x="0.000" y="0.000" font-family="Helvetica" text-anchor="middle" font-size="10pt" fill="#ffffff" >20</text>
    </g>
  </g>
</g>
<g id="ID000064" clip-path="url(#ID000001)" >
      <polyline fill="none" stroke="#000000" stroke-width="2.0pt" stroke-dasharray="none" points="856.576,433.875 856.581,434.535 856.565,435.194 856.528,435.852 856.472,436.508 856.394,437.163 856.296,437.816 856.178,438.467 856.039,439.117 855.880,439.765 855.700,440.411 855.500,441.055 855.279,441.697 855.038,442.337 854.777,442.975 854.496,443.611 854.194,444.245 853.872,444.876 853.529,445.505 853.167,446.132 852.784,446.756 852.381,447.377 851.958,447.996 851.515,448.613 851.052,449.226 850.569,449.837 850.066,450.445 849.543,451.050 849.001,451.652 848.439,452.250 847.857,452.846 847.255,453.439 846.634,454.028 845.993,454.615 845.333,455.197 844.653,455.777 843.955,456.353 843.237,456.925 842.499,457.494 841.743,458.060 840.968,458.621 840.173,459.179 839.360,459.733 838.528,460.284 837.678,460.830 836.808,461.373 835.921,461.911 835.014,462.445 834.090,462.976 833.147,463.502 832.186,464.023 831.207,464.541 830.210,465.054 829.195,465.563 828.162,466.068 827.112,466.568 826.044,467.063 824.959,467.554 823.856,468.040 822.736,468.522 821.599,468.999 820.445,469.471 819.274,469.938 818.086,470.400 816.882,470.858 815.661,471.310 814.424,471.758 813.170,472.200 811.900,472.638 810.615,473.070 809.313,473.497 807.995,473.919 806.662,474.335 805.314,474.747 803.949,475.153 802.570,475.553 801.176,475.948 799.766,476.338 798.342,476.722 796.903,477.101 795.450,477.474 793.982,477.841 792.500,478.203 791.004,478.559 789.494,478.909 787.970,479.254 786.433,479.593 784.882,479.926 783.317,480.253 781.740,480.574 780.149,480.889 778.546,481.198 776.930,481.502 775.301,481.799 773.660,482.090 772.007,482.375 770.341,482.654 768.664,482.927 766.975,483.194 765.275,483.455 763.563,483.709 761.840,483.957 760.106,484.199 758.361,484.434 756.605,484.664 754.839,484.887 753.063,485.103 751.276,485.313 749.480,485.517 747.673,485.714 745.857,485.905 744.032,486.090 742.197,486.268 740.354,486.439 738.501,486.604 736.640,486.762 734.770,486.914 732.892,487.059 731.006,487.198 729.111,487.330 727.209,487.456 725.300,487.575 723.383,487.687 721.459,487.793 719.528,487.892 717.590,487.984 715.645,488.069 713.694,488.148 711.737,488.221 709.774,488.286 707.805,488.345 705.830,488.397 703.850,488.443 701.865,488.482 699.875,488.514 697.880,488.539 695.880,488.558 693.876,488.569 691.867,488.575 689.855,488.573 687.838,488.565 685.818,488.550 683.795,488.528 681.768,488.499 679.739,488.464 677.706,488.422 675.671,488.374 673.634,488.318 671.594,488.256 669.552,488.187 667.509,488.112 665.464,488.030 663.417,487.941 661.369,487.845 659.321,487.743 657.271,487.635 655.221,487.519 653.171,487.397 651.120,487.269 649.070,487.133 647.019,486.991 644.970,486.843 642.920,486.688 640.872,486.527 638.825,486.359 636.779,486.184 634.734,486.003 632.692,485.816 630.651,485.622 628.612,485.421 626.575,485.215 624.541,485.001 622.510,484.782 620.481,484.556 618.456,484.324 616.434,484.085 614.415,483.840 612.400,483.589 610.390,483.332 608.383,483.069 606.380,482.799 604.382,482.523 602.389,482.241 600.401,481.953 598.417,481.659 596.439,481.359 594.467,481.053 592.500,480.741 590.539,480.423 588.585,480.099 586.636,479.769 584.694,479.433 582.759,479.091 580.831,478.744 578.909,478.391 576.995,478.032 575.089,477.668 573.190,477.298 571.299,476.922 569.415,476.541 567.541,476.154 565.674,475.762 563.816,475.364 561.967,474.961 560.127,474.553 558.296,474.139 556.474,473.720 554.662,473.295 552.859,472.866 551.067,472.431 549.284,471.991 547.512,471.547 545.750,471.097 543.998,470.642 542.258,470.182 540.528,469.717 538.809,469.248 537.102,468.773 535.406,468.294 533.722,467.811 532.049,467.322 530.388,466.829 528.740,466.332 527.104,465.829 525.480,465.323 523.869,464.812 522.271,464.297 520.685,463.777 519.113,463.253 517.554,462.725 516.008,462.193 514.476,461.657 512.957,461.116 511.453,460.572 509.962,460.024 508.485,459.472 507.023,458.916 505.576,458.356 504.142,457.793 502.724,457.226 501.321,456.655 499.932,456.081 498.559,455.503 497.201,454.922 495.858,454.338 494.531,453.750 493.220,453.159 491.924,452.565 490.645,451.967 489.381,451.367 488.134,450.764 486.903,450.157 485.689,449.548 484.491,448.936 483.310,448.321 482.145,447.704 480.998,447.083 479.868,446.461 478.755,445.836 477.659,445.208 476.580,444.578 475.519,443.945 474.476,443.311 473.450,442.674 472.442,442.035 471.452,441.394 470.480,440.750 469.526,440.105 468.591,439.458 467.673,438.810 466.774,438.159 465.894,437.507 465.032,436.853 464.188,436.198 463.364,435.541 462.558,434.883 461.771,434.223 461.003,433.562 460.254,432.900 459.525,432.237 458.814,431.572 458.123,430.907 457.451,430.240 456.799,429.573 456.166,428.905 455.552,428.236 454.958,427.566 454.384,426.896 453.829,426.225 453.295,425.554 452.780,424.882 452.285,424.210 451.810,423.538 451.354,422.865 450.919,422.193 450.504,421.520 450.109,420.847 449.734,420.174 449.380,419.501 449.045,418.829 448.731,418.157 448.437,417.485 448.163,416.813 447.910,416.142 447.677,415.471 447.465,414.801 447.273,414.132 447.101,413.463 446.950,412.795 446.819,412.128 446.708,411.462 446.619,410.797 446.549,410.133 446.500,409.470 446.472,408.808 446.464,408.148 446.477,407.488 446.510,406.830 446.564,406.174 446.638,405.519 446.732,404.866 446.847,404.214 446.983,403.564 447.139,402.916 447.316,402.270 447.512,401.625 447.730,400.983 447.967,400.342 448.225,399.704 448.504,399.068 448.802,398.434 449.121,397.802 449.461,397.173 449.820,396.546 450.199,395.921 450.599,395.299 451.019,394.680 451.459,394.063 451.919,393.449 452.398,392.838 452.898,392.230 453.418,391.624 453.957,391.022 454.516,390.423 455.095,389.826 455.693,389.233 456.311,388.643 456.949,388.056 457.606,387.473 458.283,386.893 458.978,386.316 459.693,385.743 460.427,385.174 461.181,384.608 461.953,384.046 462.744,383.487 463.555,382.932 464.383,382.382 465.231,381.834 466.097,381.291 466.982,380.752 467.886,380.217 468.807,379.686 469.747,379.160 470.705,378.637 471.682,378.119 472.676,377.605 473.688,377.095 474.718,376.590 475.765,376.090 476.830,375.593 477.913,375.102 479.013,374.615 480.130,374.132 481.264,373.655 482.416,373.182 483.584,372.714 484.769,372.251 485.971,371.793 487.189,371.339 488.424,370.891 489.675,370.448 490.942,370.009 492.225,369.576 493.524,369.149 494.839,368.726 496.170,368.308 497.516,367.896 498.878,367.490 500.255,367.088 501.647,366.692 503.054,366.302 504.475,365.917 505.912,365.537 507.363,365.163 508.829,364.795 510.308,364.432 511.802,364.075 513.310,363.724 514.832,363.378 516.367,363.039 517.916,362.705 519.478,362.377 521.054,362.055 522.642,361.739 524.244,361.428 525.858,361.124 527.484,360.826 529.123,360.534 530.775,360.247 532.438,359.967 534.113,359.694 535.800,359.426 537.499,359.164 539.209,358.909 540.930,358.660 542.663,358.417 544.406,358.180 546.160,357.950 547.924,357.726 549.699,357.509 551.484,357.298 553.279,357.093 555.084,356.895 556.898,356.703 558.722,356.517 560.555,356.338 562.398,356.166 564.249,356.000 566.109,355.840 567.977,355.687 569.854,355.541 571.739,355.401 573.632,355.268 575.533,355.142 577.441,355.022 579.357,354.908 581.280,354.802 583.210,354.702 585.147,354.608 587.090,354.522 589.040,354.442 590.996,354.368 592.958,354.302 594.927,354.242 596.900,354.188 598.879,354.142 600.864,354.102 602.853,354.069 604.848,354.042 606.847,354.023 608.850,354.010 610.858,354.004 612.870,354.004 614.886,354.011 616.905,354.025 618.928,354.046 620.954,354.074 622.983,354.108 625.015,354.149 627.050,354.196 629.087,354.250 631.127,354.311 633.168,354.379 635.211,354.454 637.256,354.535 639.302,354.622 641.350,354.717 643.398,354.818 645.448,354.925 647.498,355.040 649.548,355.161 651.599,355.288 653.649,355.423 655.700,355.563 657.749,355.711 659.799,355.865 661.847,356.025 663.895,356.192 665.941,356.366 667.986,356.545 670.029,356.732 672.070,356.925 674.109,357.124 676.146,357.330 678.181,357.542 680.212,357.761 682.241,357.985 684.267,358.217 686.290,358.454 688.309,358.698 690.324,358.948 692.336,359.204 694.344,359.467 696.347,359.736 698.345,360.010 700.339,360.291 702.329,360.578 704.313,360.872 706.292,361.171 708.265,361.476 710.232,361.787 712.194,362.104 714.150,362.427 716.099,362.756 718.042,363.091 719.979,363.432 721.908,363.778 723.831,364.130 725.746,364.488 727.654,364.852 729.554,365.221 731.446,365.595 733.331,365.976 735.207,366.362 737.075,366.753 738.934,367.150 740.785,367.552 742.626,367.960 744.459,368.373 746.282,368.791 748.096,369.214 749.900,369.643 751.694,370.077 753.478,370.516 755.252,370.960 757.016,371.409 758.769,371.863 760.511,372.322 762.243,372.786 763.963,373.255 765.673,373.729 767.370,374.207 769.056,374.690 770.731,375.178 772.393,375.670 774.044,376.167 775.682,376.668 777.308,377.174 778.921,377.684 780.521,378.199 782.109,378.718 783.683,379.241 785.245,379.768 786.792,380.300 788.327,380.836 789.847,381.375 791.354,381.919 792.847,382.467 794.326,383.018 795.790,383.573 797.240,384.132 798.676,384.695 800.097,385.262 801.502,385.832 802.893,386.405 804.269,386.983 805.629,387.563 806.975,388.147 808.304,388.734 809.618,389.325 810.916,389.918 812.198,390.515 813.464,391.115 814.714,391.718 815.947,392.324 817.164,392.933 818.365,393.544 819.549,394.159 820.716,394.776 821.866,395.395 822.999,396.018 824.115,396.643 825.213,397.270 826.295,397.900 827.359,398.532 828.405,399.166 829.433,399.803 830.444,400.441 831.437,401.082 832.412,401.725 833.368,402.370 834.307,403.016 835.227,403.665 836.129,404.315 837.013,404.967 837.878,405.620 838.724,406.276 839.552,406.932 840.360,407.590 841.150,408.250 841.921,408.910 842.673,409.572 843.406,410.236 844.119,410.900 844.814,411.565 845.489,412.231 846.144,412.899 846.780,413.567 847.397,414.235 847.994,414.905 848.571,415.575 849.129,416.246 849.667,416.917 850.185,417.589 850.683,418.261 851.162,418.933 851.620,419.605 852.058,420.278 852.477,420.951 852.875,421.624 853.253,422.297 853.611,422.969 853.948,423.642 854.266,424.314 854.563,424.986 854.840,425.658 855.096,426.329 855.333,427.000 855.548,427.670 855.744,428.340 855.919,429.008 856.073,429.676 856.207,430.343 856.321,431.010 856.414,431.675 856.487,432.339 856.539,433.002 856.570,433.664 856.582,434.325 856.572,434.985 856.542,435.643 "/>
<g>
</g>
</g>
    </g>
  </g>
  <g id ="ID000065">
  <clipPath id="ID000066">
    <rect x="0.000" y="0.000" width="1358.000" height="1060.000"/>
  </clipPath>
    <g>
    </g>
  </g>
  </g>
</svg>
