<?xml version="1.0" encoding="utf-8" standalone="no"?><!DOCTYPE svg PUBLIC "-//W3C//DTD SVG 1.1//EN" "http://www.w3.org/Graphics/SVG/1.1/DTD/svg11.dtd">
<svg preserveAspectRatio="xMinYMin meet" width="100%" height="100%" viewBox="0 0 1571.000 1357.000"  version="1.1" xmlns="http://www.w3.org/2000/svg" xmlns:xlink="http://www.w3.org/1999/xlink">
  <desc>Matlab Figure Converted by PLOT2SVG written by Juerg Schwizer</desc>
  <g id="topgroup">
  <rect x="0" y="0" width="1571.000" height="1357.000" fill="#ffffff" stroke="none" />
  <g id ="ID000000">
  <clipPath id="ID000001">
    <rect x="260.015" y="101.775" width="1105.955" height="1105.955"/>
  </clipPath>
      <polygon fill="#ffffff" fill-opacity="1.00" stroke="none" stroke-width="0.5pt" stroke-opacity="1.00" stroke-dasharray="none" points="260.015,1207.730 1365.970,1207.730 1365.970,101.775 260.015,101.775 "/>
      <polygon fill="#ffffff" fill-opacity="1.00" stroke="none" stroke-width="0.5pt" stroke-opacity="1.00" stroke-dasharray="none" points="260.015,101.775 1365.970,101.775 1365.970,101.775 260.015,101.775 "/>
      <polygon fill="#ffffff" fill-opacity="1.00" stroke="none" stroke-width="0.5pt" stroke-opacity="1.00" stroke-dasharray="none" points="260.015,1207.730 260.015,1207.730 260.015,101.775 260.015,101.775 "/>
    <g>
<g id="ID000002" clip-path="url(#ID000001)" >
<image x="-2067.289" y="59.277" width="4447.950" height="4447.950" image-rendering="optimizeSpeed" preserveAspectRatio="none" xlink:href="WingTrackingExample20130929_NoWingColorNoTrx001.png" />
</g>
<g id="ID000003" >
</g>
<g id="ID000004" clip-path="url(#ID000001)" >
      <polyline fill="none" stroke="#00b20d" stroke-width="2.0pt" stroke-dasharray="none" points="-918.509,3931.582 -1009.920,3932.074 -918.509,3931.582 "/>
<g>
<circle cx="-918.509" cy="3931.582" r="1.000" fill="#00b20d" stroke="none" stroke-width="2.0pt" />
<circle cx="-1009.920" cy="3932.074" r="1.000" fill="#00b20d" stroke="none" stroke-width="2.0pt" />
<circle cx="-918.509" cy="3931.582" r="1.000" fill="#00b20d" stroke="none" stroke-width="2.0pt" />
</g>
</g>
<g id="ID000005" clip-path="url(#ID000001)" >
      <polyline fill="none" stroke="#1b00b2" stroke-width="2.0pt" stroke-dasharray="none" points="-1258.142,3333.062 -1156.743,3347.465 -1258.142,3333.062 "/>
<g>
<circle cx="-1258.142" cy="3333.062" r="1.000" fill="#1b00b2" stroke="none" stroke-width="2.0pt" />
<circle cx="-1156.743" cy="3347.465" r="1.000" fill="#1b00b2" stroke="none" stroke-width="2.0pt" />
<circle cx="-1258.142" cy="3333.062" r="1.000" fill="#1b00b2" stroke="none" stroke-width="2.0pt" />
</g>
</g>
<g id="ID000006" clip-path="url(#ID000001)" >
      <polyline fill="none" stroke="#b22900" stroke-width="2.0pt" stroke-dasharray="none" points="1645.290,3550.366 1707.252,3499.284 1645.290,3550.366 "/>
<g>
<circle cx="1645.290" cy="3550.366" r="1.000" fill="#b22900" stroke="none" stroke-width="2.0pt" />
<circle cx="1707.252" cy="3499.284" r="1.000" fill="#b22900" stroke="none" stroke-width="2.0pt" />
<circle cx="1645.290" cy="3550.366" r="1.000" fill="#b22900" stroke="none" stroke-width="2.0pt" />
</g>
</g>
<g id="ID000007" clip-path="url(#ID000001)" >
      <polyline fill="none" stroke="#4400b2" stroke-width="2.0pt" stroke-dasharray="none" points="956.939,559.254 1051.380,565.723 956.939,559.254 "/>
<g>
<circle cx="956.939" cy="559.254" r="1.000" fill="#4400b2" stroke="none" stroke-width="2.0pt" />
<circle cx="1051.380" cy="565.723" r="1.000" fill="#4400b2" stroke="none" stroke-width="2.0pt" />
<circle cx="956.939" cy="559.254" r="1.000" fill="#4400b2" stroke="none" stroke-width="2.0pt" />
</g>
</g>
<g id="ID000008" clip-path="url(#ID000001)" >
      <polyline fill="none" stroke="#00b2b2" stroke-width="2.0pt" stroke-dasharray="none" points="755.510,519.241 721.802,599.332 771.684,528.180 "/>
<g>
<circle cx="755.510" cy="519.241" r="1.000" fill="#00b2b2" stroke="none" stroke-width="2.0pt" />
<circle cx="721.802" cy="599.332" r="1.000" fill="#00b2b2" stroke="none" stroke-width="2.0pt" />
<circle cx="771.684" cy="528.180" r="1.000" fill="#00b2b2" stroke="none" stroke-width="2.0pt" />
</g>
</g>
<g id="ID000009" clip-path="url(#ID000001)" >
      <polyline fill="none" stroke="#b27b00" stroke-width="2.0pt" stroke-dasharray="none" points="-929.097,3695.364 -841.440,3725.941 -929.097,3695.364 "/>
<g>
<circle cx="-929.097" cy="3695.364" r="1.000" fill="#b27b00" stroke="none" stroke-width="2.0pt" />
<circle cx="-841.440" cy="3725.941" r="1.000" fill="#b27b00" stroke="none" stroke-width="2.0pt" />
<circle cx="-929.097" cy="3695.364" r="1.000" fill="#b27b00" stroke="none" stroke-width="2.0pt" />
</g>
</g>
<g id="ID000010" clip-path="url(#ID000001)" >
      <polyline fill="none" stroke="#00b260" stroke-width="2.0pt" stroke-dasharray="none" points="-1328.828,3573.559 -1316.524,3498.923 -1377.683,3543.438 "/>
<g>
<circle cx="-1328.828" cy="3573.559" r="1.000" fill="#00b260" stroke="none" stroke-width="2.0pt" />
<circle cx="-1316.524" cy="3498.923" r="1.000" fill="#00b260" stroke="none" stroke-width="2.0pt" />
<circle cx="-1377.683" cy="3543.438" r="1.000" fill="#00b260" stroke="none" stroke-width="2.0pt" />
</g>
</g>
<g id="ID000011" clip-path="url(#ID000001)" >
      <polyline fill="none" stroke="#000db2" stroke-width="2.0pt" stroke-dasharray="none" points="623.572,674.891 607.071,756.081 684.906,784.470 "/>
<g>
<circle cx="623.572" cy="674.891" r="1.000" fill="#000db2" stroke="none" stroke-width="2.0pt" />
<circle cx="607.071" cy="756.081" r="1.000" fill="#000db2" stroke="none" stroke-width="2.0pt" />
<circle cx="684.906" cy="784.470" r="1.000" fill="#000db2" stroke="none" stroke-width="2.0pt" />
</g>
</g>
<g id="ID000012" clip-path="url(#ID000001)" >
      <polyline fill="none" stroke="#9700b2" stroke-width="2.0pt" stroke-dasharray="none" points="676.830,605.819 668.612,682.905 741.861,657.519 "/>
<g>
<circle cx="676.830" cy="605.819" r="1.000" fill="#9700b2" stroke="none" stroke-width="2.0pt" />
<circle cx="668.612" cy="682.905" r="1.000" fill="#9700b2" stroke="none" stroke-width="2.0pt" />
<circle cx="741.861" cy="657.519" r="1.000" fill="#9700b2" stroke="none" stroke-width="2.0pt" />
</g>
</g>
<g id="ID000013" clip-path="url(#ID000001)" >
      <polyline fill="none" stroke="#b2a400" stroke-width="2.0pt" stroke-dasharray="none" points="-644.201,3191.136 -693.227,3100.765 -685.346,3203.275 "/>
<g>
<circle cx="-644.201" cy="3191.136" r="1.000" fill="#b2a400" stroke="none" stroke-width="2.0pt" />
<circle cx="-693.227" cy="3100.765" r="1.000" fill="#b2a400" stroke="none" stroke-width="2.0pt" />
<circle cx="-685.346" cy="3203.275" r="1.000" fill="#b2a400" stroke="none" stroke-width="2.0pt" />
</g>
</g>
<g id="ID000014" clip-path="url(#ID000001)" >
      <polyline fill="none" stroke="#1bb200" stroke-width="2.0pt" stroke-dasharray="none" points="864.329,473.758 791.835,524.340 864.329,473.758 "/>
<g>
<circle cx="864.329" cy="473.758" r="1.000" fill="#1bb200" stroke="none" stroke-width="2.0pt" />
<circle cx="791.835" cy="524.340" r="1.000" fill="#1bb200" stroke="none" stroke-width="2.0pt" />
<circle cx="864.329" cy="473.758" r="1.000" fill="#1bb200" stroke="none" stroke-width="2.0pt" />
</g>
</g>
<g id="ID000015" clip-path="url(#ID000001)" >
      <polyline fill="none" stroke="#b20000" stroke-width="2.0pt" stroke-dasharray="none" points="916.131,529.388 958.206,440.587 916.131,529.388 "/>
<g>
<circle cx="916.131" cy="529.388" r="1.000" fill="#b20000" stroke="none" stroke-width="2.0pt" />
<circle cx="958.206" cy="440.587" r="1.000" fill="#b20000" stroke="none" stroke-width="2.0pt" />
<circle cx="916.131" cy="529.388" r="1.000" fill="#b20000" stroke="none" stroke-width="2.0pt" />
</g>
</g>
<g id="ID000016" clip-path="url(#ID000001)" >
      <polyline fill="none" stroke="#6d00b2" stroke-width="2.0pt" stroke-dasharray="none" points="1730.829,3469.218 1807.863,3436.270 1730.829,3469.218 "/>
<g>
<circle cx="1730.829" cy="3469.218" r="1.000" fill="#6d00b2" stroke="none" stroke-width="2.0pt" />
<circle cx="1807.863" cy="3436.270" r="1.000" fill="#6d00b2" stroke="none" stroke-width="2.0pt" />
<circle cx="1730.829" cy="3469.218" r="1.000" fill="#6d00b2" stroke="none" stroke-width="2.0pt" />
</g>
</g>
<g id="ID000017" clip-path="url(#ID000001)" >
      <polyline fill="none" stroke="#97b200" stroke-width="2.0pt" stroke-dasharray="none" points="-1829.371,1758.672 -1888.042,1826.649 -1829.371,1758.672 "/>
<g>
<circle cx="-1829.371" cy="1758.672" r="1.000" fill="#97b200" stroke="none" stroke-width="2.0pt" />
<circle cx="-1888.042" cy="1826.649" r="1.000" fill="#97b200" stroke="none" stroke-width="2.0pt" />
<circle cx="-1829.371" cy="1758.672" r="1.000" fill="#97b200" stroke="none" stroke-width="2.0pt" />
</g>
</g>
<g id="ID000018" clip-path="url(#ID000001)" >
      <polyline fill="none" stroke="#b25200" stroke-width="2.0pt" stroke-dasharray="none" points="591.048,730.457 523.602,807.963 612.786,756.949 "/>
<g>
<circle cx="591.048" cy="730.457" r="1.000" fill="#b25200" stroke="none" stroke-width="2.0pt" />
<circle cx="523.602" cy="807.963" r="1.000" fill="#b25200" stroke="none" stroke-width="2.0pt" />
<circle cx="612.786" cy="756.949" r="1.000" fill="#b25200" stroke="none" stroke-width="2.0pt" />
</g>
</g>
<g id="ID000019" clip-path="url(#ID000001)" >
      <polyline fill="none" stroke="#0089b2" stroke-width="2.0pt" stroke-dasharray="none" points="-1899.497,2304.357 -1929.942,2391.261 -1899.497,2304.357 "/>
<g>
<circle cx="-1899.497" cy="2304.357" r="1.000" fill="#0089b2" stroke="none" stroke-width="2.0pt" />
<circle cx="-1929.942" cy="2391.261" r="1.000" fill="#0089b2" stroke="none" stroke-width="2.0pt" />
<circle cx="-1899.497" cy="2304.357" r="1.000" fill="#0089b2" stroke="none" stroke-width="2.0pt" />
</g>
</g>
<g id="ID000020" clip-path="url(#ID000001)" >
      <polyline fill="none" stroke="#00b289" stroke-width="2.0pt" stroke-dasharray="none" points="-696.163,3233.258 -699.478,3185.542 -729.567,3222.724 "/>
<g>
<circle cx="-696.163" cy="3233.258" r="1.000" fill="#00b289" stroke="none" stroke-width="2.0pt" />
<circle cx="-699.478" cy="3185.542" r="1.000" fill="#00b289" stroke="none" stroke-width="2.0pt" />
<circle cx="-729.567" cy="3222.724" r="1.000" fill="#00b289" stroke="none" stroke-width="2.0pt" />
</g>
</g>
<g id="ID000021" clip-path="url(#ID000001)" >
      <polyline fill="none" stroke="#6db200" stroke-width="2.0pt" stroke-dasharray="none" points="-1288.847,3535.826 -1247.587,3440.905 -1323.921,3510.801 "/>
<g>
<circle cx="-1288.847" cy="3535.826" r="1.000" fill="#6db200" stroke="none" stroke-width="2.0pt" />
<circle cx="-1247.587" cy="3440.905" r="1.000" fill="#6db200" stroke="none" stroke-width="2.0pt" />
<circle cx="-1323.921" cy="3510.801" r="1.000" fill="#6db200" stroke="none" stroke-width="2.0pt" />
</g>
</g>
<g id="ID000022" clip-path="url(#ID000001)" >
      <polyline fill="none" stroke="#0036b2" stroke-width="2.0pt" stroke-dasharray="none" points="-1143.964,3395.273 -1082.226,3324.276 -1143.964,3395.273 "/>
<g>
<circle cx="-1143.964" cy="3395.273" r="1.000" fill="#0036b2" stroke="none" stroke-width="2.0pt" />
<circle cx="-1082.226" cy="3324.276" r="1.000" fill="#0036b2" stroke="none" stroke-width="2.0pt" />
<circle cx="-1143.964" cy="3395.273" r="1.000" fill="#0036b2" stroke="none" stroke-width="2.0pt" />
</g>
</g>
<g id="ID000023" clip-path="url(#ID000001)" >
      <polyline fill="none" stroke="#44b200" stroke-width="2.0pt" stroke-dasharray="none" points="-1097.835,3492.414 -1106.218,3402.109 -1097.835,3492.414 "/>
<g>
<circle cx="-1097.835" cy="3492.414" r="1.000" fill="#44b200" stroke="none" stroke-width="2.0pt" />
<circle cx="-1106.218" cy="3402.109" r="1.000" fill="#44b200" stroke="none" stroke-width="2.0pt" />
<circle cx="-1097.835" cy="3492.414" r="1.000" fill="#44b200" stroke="none" stroke-width="2.0pt" />
</g>
</g>
<g id="ID000024" clip-path="url(#ID000001)" >
      <polyline fill="none" stroke="#00ff13" stroke-width="2.0pt" stroke-dasharray="none" points="-964.413,3947.789 -964.022,3917.540 -1055.622,3931.483 -964.413,3947.789 "/>
<g>
</g>
</g>
<g id="ID000025" clip-path="url(#ID000001)" >
      <polyline fill="none" stroke="#2700ff" stroke-width="2.0pt" stroke-dasharray="none" points="-1206.545,3329.143 -1208.969,3356.870 -1105.729,3351.923 -1206.545,3329.143 "/>
<g>
</g>
</g>
<g id="ID000026" clip-path="url(#ID000001)" >
      <polyline fill="none" stroke="#ff3a00" stroke-width="2.0pt" stroke-dasharray="none" points="1666.555,3512.118 1684.065,3535.108 1739.193,3474.956 1666.555,3512.118 "/>
<g>
</g>
</g>
<g id="ID000027" clip-path="url(#ID000001)" >
      <polyline fill="none" stroke="#6200ff" stroke-width="2.0pt" stroke-dasharray="none" points="1004.878,547.769 1003.335,579.006 1098.653,568.058 1004.878,547.769 "/>
<g>
</g>
</g>
<g id="ID000028" clip-path="url(#ID000001)" >
      <polyline fill="none" stroke="#00ffff" stroke-width="2.0pt" stroke-dasharray="none" points="758.729,572.159 734.757,555.353 696.860,634.908 758.729,572.159 "/>
<g>
</g>
</g>
<g id="ID000029" clip-path="url(#ID000001)" >
      <polyline fill="none" stroke="#ffb000" stroke-width="2.0pt" stroke-dasharray="none" points="-879.475,3695.125 -890.362,3724.242 -797.962,3742.198 -879.475,3695.125 "/>
<g>
</g>
</g>
<g id="ID000030" clip-path="url(#ID000001)" >
      <polyline fill="none" stroke="#00ff89" stroke-width="2.0pt" stroke-dasharray="none" points="-1353.364,3515.038 -1334.578,3534.852 -1289.078,3472.900 -1353.364,3515.038 "/>
<g>
</g>
</g>
<g id="ID000031" clip-path="url(#ID000001)" >
      <polyline fill="none" stroke="#0013ff" stroke-width="2.0pt" stroke-dasharray="none" points="649.437,744.225 632.312,720.048 573.267,780.026 649.437,744.225 "/>
<g>
</g>
</g>
<g id="ID000032" clip-path="url(#ID000001)" >
      <polyline fill="none" stroke="#d700ff" stroke-width="2.0pt" stroke-dasharray="none" points="704.201,661.681 681.266,643.447 644.490,713.247 704.201,661.681 "/>
<g>
</g>
</g>
<g id="ID000033" clip-path="url(#ID000001)" >
      <polyline fill="none" stroke="#ffeb00" stroke-width="2.0pt" stroke-dasharray="none" points="-704.833,3153.215 -673.741,3150.825 -697.168,3049.510 -704.833,3153.215 "/>
<g>
</g>
</g>
<g id="ID000034" clip-path="url(#ID000001)" >
      <polyline fill="none" stroke="#27ff00" stroke-width="2.0pt" stroke-dasharray="none" points="835.123,507.625 817.391,485.608 757.413,552.064 835.123,507.625 "/>
<g>
</g>
</g>
<g id="ID000035" clip-path="url(#ID000001)" >
      <polyline fill="none" stroke="#ff0000" stroke-width="2.0pt" stroke-dasharray="none" points="921.353,476.867 950.039,491.652 980.717,396.915 921.353,476.867 "/>
<g>
</g>
</g>
<g id="ID000036" clip-path="url(#ID000001)" >
      <polyline fill="none" stroke="#9c00ff" stroke-width="2.0pt" stroke-dasharray="none" points="1763.898,3441.760 1776.601,3467.667 1845.477,3417.827 1763.898,3441.760 "/>
<g>
</g>
</g>
<g id="ID000037" clip-path="url(#ID000001)" >
      <polyline fill="none" stroke="#d7ff00" stroke-width="2.0pt" stroke-dasharray="none" points="-1851.052,1797.453 -1874.778,1781.430 -1913.170,1863.856 -1851.052,1797.453 "/>
<g>
</g>
</g>
<g id="ID000038" clip-path="url(#ID000001)" >
      <polyline fill="none" stroke="#ff7500" stroke-width="2.0pt" stroke-dasharray="none" points="576.071,796.226 560.318,768.686 479.011,833.469 576.071,796.226 "/>
<g>
</g>
</g>
<g id="ID000039" clip-path="url(#ID000001)" >
      <polyline fill="none" stroke="#00c4ff" stroke-width="2.0pt" stroke-dasharray="none" points="-1903.290,2351.484 -1928.301,2343.409 -1944.088,2435.075 -1903.290,2351.484 "/>
<g>
</g>
</g>
<g id="ID000040" clip-path="url(#ID000001)" >
      <polyline fill="none" stroke="#00ffc4" stroke-width="2.0pt" stroke-dasharray="none" points="-716.531,3208.224 -686.071,3210.552 -697.655,3161.695 -716.531,3208.224 "/>
<g>
</g>
</g>
<g id="ID000041" clip-path="url(#ID000001)" >
      <polyline fill="none" stroke="#9cff00" stroke-width="2.0pt" stroke-dasharray="none" points="-1296.141,3464.509 -1275.367,3487.197 -1209.419,3405.957 -1296.141,3464.509 "/>
<g>
</g>
</g>
<g id="ID000042" clip-path="url(#ID000001)" >
      <polyline fill="none" stroke="#004eff" stroke-width="2.0pt" stroke-dasharray="none" points="-1125.095,3349.340 -1101.096,3370.209 -1051.357,3288.777 -1125.095,3349.340 "/>
<g>
</g>
</g>
<g id="ID000043" clip-path="url(#ID000001)" >
      <polyline fill="none" stroke="#62ff00" stroke-width="2.0pt" stroke-dasharray="none" points="-1114.969,3448.759 -1087.118,3445.560 -1111.393,3357.058 -1114.969,3448.759 "/>
<g>
</g>
</g>
<g id="ID000044" >
  <g transform="translate(-1009.920,3929.574)">
    <g transform="rotate(-0.0)">
      <text x="0.000" y="0.000" font-family="Helvetica" text-anchor="start" font-size="10pt" fill="#ffffff" >F</text>
    </g>
  </g>
</g>
<g id="ID000045" >
  <g transform="translate(-1156.743,3344.965)">
    <g transform="rotate(-0.0)">
      <text x="0.000" y="0.000" font-family="Helvetica" text-anchor="start" font-size="10pt" fill="#ffffff" >M</text>
    </g>
  </g>
</g>
<g id="ID000046" >
  <g transform="translate(1707.252,3496.784)">
    <g transform="rotate(-0.0)">
      <text x="0.000" y="0.000" font-family="Helvetica" text-anchor="start" font-size="10pt" fill="#ffffff" >M</text>
    </g>
  </g>
</g>
<g id="ID000047" >
  <g transform="translate(1051.380,563.223)">
    <g transform="rotate(-0.0)">
      <text x="0.000" y="0.000" font-family="Helvetica" text-anchor="start" font-size="10pt" fill="#ffffff" >F</text>
    </g>
  </g>
</g>
<g id="ID000048" >
  <g transform="translate(721.802,596.832)">
    <g transform="rotate(-0.0)">
      <text x="0.000" y="0.000" font-family="Helvetica" text-anchor="start" font-size="10pt" fill="#ffffff" >M</text>
    </g>
  </g>
</g>
<g id="ID000049" >
  <g transform="translate(-841.440,3723.441)">
    <g transform="rotate(-0.0)">
      <text x="0.000" y="0.000" font-family="Helvetica" text-anchor="start" font-size="10pt" fill="#ffffff" >F</text>
    </g>
  </g>
</g>
<g id="ID000050" >
  <g transform="translate(-1316.524,3496.423)">
    <g transform="rotate(-0.0)">
      <text x="0.000" y="0.000" font-family="Helvetica" text-anchor="start" font-size="10pt" fill="#ffffff" >M</text>
    </g>
  </g>
</g>
<g id="ID000051" >
  <g transform="translate(607.071,753.581)">
    <g transform="rotate(-0.0)">
      <text x="0.000" y="0.000" font-family="Helvetica" text-anchor="start" font-size="10pt" fill="#ffffff" >M</text>
    </g>
  </g>
</g>
<g id="ID000052" >
  <g transform="translate(668.612,680.405)">
    <g transform="rotate(-0.0)">
      <text x="0.000" y="0.000" font-family="Helvetica" text-anchor="start" font-size="10pt" fill="#ffffff" >M</text>
    </g>
  </g>
</g>
<g id="ID000053" >
  <g transform="translate(-693.227,3098.265)">
    <g transform="rotate(-0.0)">
      <text x="0.000" y="0.000" font-family="Helvetica" text-anchor="start" font-size="10pt" fill="#ffffff" >F</text>
    </g>
  </g>
</g>
<g id="ID000054" >
  <g transform="translate(791.835,521.840)">
    <g transform="rotate(-0.0)">
      <text x="0.000" y="0.000" font-family="Helvetica" text-anchor="start" font-size="10pt" fill="#ffffff" >M</text>
    </g>
  </g>
</g>
<g id="ID000055" >
  <g transform="translate(958.206,438.087)">
    <g transform="rotate(-0.0)">
      <text x="0.000" y="0.000" font-family="Helvetica" text-anchor="start" font-size="10pt" fill="#ffffff" >F</text>
    </g>
  </g>
</g>
<g id="ID000056" >
  <g transform="translate(1807.863,3433.770)">
    <g transform="rotate(-0.0)">
      <text x="0.000" y="0.000" font-family="Helvetica" text-anchor="start" font-size="10pt" fill="#ffffff" >M</text>
    </g>
  </g>
</g>
<g id="ID000057" >
  <g transform="translate(-1888.042,1824.149)">
    <g transform="rotate(-0.0)">
      <text x="0.000" y="0.000" font-family="Helvetica" text-anchor="start" font-size="10pt" fill="#ffffff" >F</text>
    </g>
  </g>
</g>
<g id="ID000058" >
  <g transform="translate(523.602,805.463)">
    <g transform="rotate(-0.0)">
      <text x="0.000" y="0.000" font-family="Helvetica" text-anchor="start" font-size="10pt" fill="#ffffff" >F</text>
    </g>
  </g>
</g>
<g id="ID000059" >
  <g transform="translate(-1929.942,2388.761)">
    <g transform="rotate(-0.0)">
      <text x="0.000" y="0.000" font-family="Helvetica" text-anchor="start" font-size="10pt" fill="#ffffff" >M</text>
    </g>
  </g>
</g>
<g id="ID000060" >
  <g transform="translate(-699.478,3183.042)">
    <g transform="rotate(-0.0)">
      <text x="0.000" y="0.000" font-family="Helvetica" text-anchor="start" font-size="10pt" fill="#ffffff" >M</text>
    </g>
  </g>
</g>
<g id="ID000061" >
  <g transform="translate(-1247.587,3438.405)">
    <g transform="rotate(-0.0)">
      <text x="0.000" y="0.000" font-family="Helvetica" text-anchor="start" font-size="10pt" fill="#ffffff" >F</text>
    </g>
  </g>
</g>
<g id="ID000062" >
  <g transform="translate(-1082.226,3321.776)">
    <g transform="rotate(-0.0)">
      <text x="0.000" y="0.000" font-family="Helvetica" text-anchor="start" font-size="10pt" fill="#ffffff" >F</text>
    </g>
  </g>
</g>
<g id="ID000063" >
  <g transform="translate(-1106.218,3399.609)">
    <g transform="rotate(-0.0)">
      <text x="0.000" y="0.000" font-family="Helvetica" text-anchor="start" font-size="10pt" fill="#ffffff" >M</text>
    </g>
  </g>
</g>
<g id="ID000064" >
</g>
<g id="ID000065" >
</g>
    </g>
    <g>
      <polyline fill="none" stroke="#000000" stroke-width="0.5pt" stroke-dasharray="none" points="319.575,1207.730 319.575,1195.555 "/>
      <polyline fill="none" stroke="#000000" stroke-width="0.5pt" stroke-dasharray="none" points="536.760,1207.730 536.760,1195.555 "/>
      <polyline fill="none" stroke="#000000" stroke-width="0.5pt" stroke-dasharray="none" points="753.945,1207.730 753.945,1195.555 "/>
      <polyline fill="none" stroke="#000000" stroke-width="0.5pt" stroke-dasharray="none" points="971.130,1207.730 971.130,1195.555 "/>
      <polyline fill="none" stroke="#000000" stroke-width="0.5pt" stroke-dasharray="none" points="1188.315,1207.730 1188.315,1195.555 "/>
      <polyline fill="none" stroke="#000000" stroke-width="0.5pt" stroke-dasharray="none" points="260.015,1207.730 1365.970,1207.730 "/>
  <g transform="translate(319.575,1241.649)">
    <g transform="rotate(-0.0)">
      <text x="0.000" y="0.000" font-family="Helvetica" text-anchor="middle" font-size="10pt" fill="#000000" >550</text>
    </g>
  </g>
  <g transform="translate(536.760,1241.649)">
    <g transform="rotate(-0.0)">
      <text x="0.000" y="0.000" font-family="Helvetica" text-anchor="middle" font-size="10pt" fill="#000000" >600</text>
    </g>
  </g>
  <g transform="translate(753.945,1241.649)">
    <g transform="rotate(-0.0)">
      <text x="0.000" y="0.000" font-family="Helvetica" text-anchor="middle" font-size="10pt" fill="#000000" >650</text>
    </g>
  </g>
  <g transform="translate(971.130,1241.649)">
    <g transform="rotate(-0.0)">
      <text x="0.000" y="0.000" font-family="Helvetica" text-anchor="middle" font-size="10pt" fill="#000000" >700</text>
    </g>
  </g>
  <g transform="translate(1188.315,1241.649)">
    <g transform="rotate(-0.0)">
      <text x="0.000" y="0.000" font-family="Helvetica" text-anchor="middle" font-size="10pt" fill="#000000" >750</text>
    </g>
  </g>
      <polyline fill="none" stroke="#000000" stroke-width="0.5pt" stroke-dasharray="none" points="260.015,274.290 271.075,274.290 "/>
      <polyline fill="none" stroke="#000000" stroke-width="0.5pt" stroke-dasharray="none" points="260.015,491.475 271.075,491.475 "/>
      <polyline fill="none" stroke="#000000" stroke-width="0.5pt" stroke-dasharray="none" points="260.015,708.660 271.075,708.660 "/>
      <polyline fill="none" stroke="#000000" stroke-width="0.5pt" stroke-dasharray="none" points="260.015,925.845 271.075,925.845 "/>
      <polyline fill="none" stroke="#000000" stroke-width="0.5pt" stroke-dasharray="none" points="260.015,1143.030 271.075,1143.030 "/>
      <polyline fill="none" stroke="#000000" stroke-width="0.5pt" stroke-dasharray="none" points="260.015,1207.730 260.015,101.775 "/>
  <g transform="translate(237.896,278.790)">
    <g transform="rotate(-0.0)">
      <text x="0.000" y="0.000" font-family="Helvetica" text-anchor="end" font-size="10pt" fill="#000000" >50</text>
    </g>
  </g>
  <g transform="translate(237.896,495.975)">
    <g transform="rotate(-0.0)">
      <text x="0.000" y="0.000" font-family="Helvetica" text-anchor="end" font-size="10pt" fill="#000000" >100</text>
    </g>
  </g>
  <g transform="translate(237.896,713.160)">
    <g transform="rotate(-0.0)">
      <text x="0.000" y="0.000" font-family="Helvetica" text-anchor="end" font-size="10pt" fill="#000000" >150</text>
    </g>
  </g>
  <g transform="translate(237.896,930.345)">
    <g transform="rotate(-0.0)">
      <text x="0.000" y="0.000" font-family="Helvetica" text-anchor="end" font-size="10pt" fill="#000000" >200</text>
    </g>
  </g>
  <g transform="translate(237.896,1147.530)">
    <g transform="rotate(-0.0)">
      <text x="0.000" y="0.000" font-family="Helvetica" text-anchor="end" font-size="10pt" fill="#000000" >250</text>
    </g>
  </g>
      <polyline fill="none" stroke="#000000" stroke-width="0.5pt" stroke-dasharray="none" points="260.015,1207.730 260.015,1196.670 "/>
      <polyline fill="none" stroke="#000000" stroke-width="0.5pt" stroke-dasharray="none" points="260.015,1207.730 260.015,1196.670 "/>
      <polyline fill="none" stroke="#000000" stroke-width="0.5pt" stroke-dasharray="none" points="260.015,1207.730 260.015,1196.670 "/>
      <polyline fill="none" stroke="#000000" stroke-width="0.5pt" stroke-dasharray="none" points="260.015,1207.730 260.015,1207.730 "/>
    </g>
  </g>
  </g>
</svg>
